<mxfile host="app.diagrams.net" modified="2024-01-01T00:00:00.000Z" agent="Claude" etag="frontend-cicd" version="22.1.11" type="device">
  <diagram name="Frontend CI/CD Flow" id="frontend-flow">
    <mxGraphModel dx="1422" dy="794" grid="1" gridSize="10" guides="1" tooltips="1" connect="1" arrows="1" fold="1" page="1" pageScale="1" pageWidth="1169" pageHeight="827" math="0" shadow="0">
      <root>
        <mxCell id="0" />
        <mxCell id="1" parent="0" />
        
        <!-- Developer -->
        <mxCell id="developer" value="👨‍💻 Developer" style="rounded=1;whiteSpace=wrap;html=1;fillColor=#E1F5FE;strokeColor=#01579B;fontStyle=1;" vertex="1" parent="1">
          <mxGeometry x="480" y="40" width="120" height="60" as="geometry" />
        </mxCell>
        
        <!-- Decision Diamond -->
        <mxCell id="decision" value="¿Tipo de&#xa;cambio?" style="rhombus;whiteSpace=wrap;html=1;fillColor=#FFF3E0;strokeColor=#E65100;" vertex="1" parent="1">
          <mxGeometry x="490" y="150" width="100" height="80" as="geometry" />
        </mxCell>
        
        <!-- Feature/Fix Branch -->
        <mxCell id="feature-pr" value="📝 Create PR&#xa;to pre-deploy" style="rounded=1;whiteSpace=wrap;html=1;fillColor=#F3E5F5;strokeColor=#4A148C;" vertex="1" parent="1">
          <mxGeometry x="300" y="280" width="120" height="60" as="geometry" />
        </mxCell>
        
        <!-- Release Branch -->
        <mxCell id="release-pr" value="📝 Create PR&#xa;to main" style="rounded=1;whiteSpace=wrap;html=1;fillColor=#F3E5F5;strokeColor=#4A148C;" vertex="1" parent="1">
          <mxGeometry x="660" y="280" width="120" height="60" as="geometry" />
        </mxCell>
        
        <!-- GitHub Actions Testing -->
        <mxCell id="gh-actions-test" value="🔄 GitHub Actions&#xa;CI/CD Pipeline" style="rounded=1;whiteSpace=wrap;html=1;fillColor=#E8F5E8;strokeColor=#2E7D32;" vertex="1" parent="1">
          <mxGeometry x="300" y="400" width="120" height="60" as="geometry" />
        </mxCell>
        
        <!-- GitHub Actions Production -->
        <mxCell id="gh-actions-prod" value="🔄 GitHub Actions&#xa;CI/CD Pipeline" style="rounded=1;whiteSpace=wrap;html=1;fillColor=#E8F5E8;strokeColor=#2E7D32;" vertex="1" parent="1">
          <mxGeometry x="660" y="400" width="120" height="60" as="geometry" />
        </mxCell>
        
        <!-- Testing Slot -->
        <mxCell id="testing-slot" value="🧪 App Service&#xa;Testing Slot" style="rounded=1;whiteSpace=wrap;html=1;fillColor=#FFF3E0;strokeColor=#E65100;fontStyle=1;" vertex="1" parent="1">
          <mxGeometry x="300" y="520" width="120" height="60" as="geometry" />
        </mxCell>
        
        <!-- Production Slot -->
        <mxCell id="production-slot" value="🚀 App Service&#xa;Production Slot" style="rounded=1;whiteSpace=wrap;html=1;fillColor=#E8F5E8;strokeColor=#2E7D32;fontStyle=1;" vertex="1" parent="1">
          <mxGeometry x="660" y="520" width="120" height="60" as="geometry" />
        </mxCell>
        
        <!-- Testing & QA -->
        <mxCell id="testing-qa" value="🔍 Testing &amp; QA" style="rounded=1;whiteSpace=wrap;html=1;fillColor=#FFF3E0;strokeColor=#E65100;" vertex="1" parent="1">
          <mxGeometry x="300" y="640" width="120" height="60" as="geometry" />
        </mxCell>
        
        <!-- Approval Decision -->
        <mxCell id="approval" value="¿Aprobado?" style="rhombus;whiteSpace=wrap;html=1;fillColor=#FFF3E0;strokeColor=#E65100;" vertex="1" parent="1">
          <mxGeometry x="310" y="740" width="100" height="80" as="geometry" />
        </mxCell>
        
        <!-- Fix Issues -->
        <mxCell id="fix-issues" value="🐛 Fix Issues" style="rounded=1;whiteSpace=wrap;html=1;fillColor=#FFEBEE;strokeColor=#C62828;" vertex="1" parent="1">
          <mxGeometry x="120" y="640" width="120" height="60" as="geometry" />
        </mxCell>
        
        <!-- Merge to Main -->
        <mxCell id="merge-main" value="🎉 Merge to main" style="rounded=1;whiteSpace=wrap;html=1;fillColor=#E8F5E8;strokeColor=#2E7D32;fontStyle=1;" vertex="1" parent="1">
          <mxGeometry x="480" y="640" width="120" height="60" as="geometry" />
        </mxCell>
        
        <!-- Arrows -->
        <mxCell id="edge1" edge="1" parent="1" source="developer" target="decision">
          <mxGeometry relative="1" as="geometry" />
        </mxCell>
        
        <mxCell id="edge2" edge="1" parent="1" source="decision" target="feature-pr">
          <mxGeometry relative="1" as="geometry" />
        </mxCell>
        
        <mxCell id="edge3" edge="1" parent="1" source="decision" target="release-pr">
          <mxGeometry relative="1" as="geometry" />
        </mxCell>
        
        <mxCell id="edge4" edge="1" parent="1" source="feature-pr" target="gh-actions-test">
          <mxGeometry relative="1" as="geometry" />
        </mxCell>
        
        <mxCell id="edge5" edge="1" parent="1" source="release-pr" target="gh-actions-prod">
          <mxGeometry relative="1" as="geometry" />
        </mxCell>
        
        <mxCell id="edge6" edge="1" parent="1" source="gh-actions-test" target="testing-slot">
          <mxGeometry relative="1" as="geometry" />
        </mxCell>
        
        <mxCell id="edge7" edge="1" parent="1" source="gh-actions-prod" target="production-slot">
          <mxGeometry relative="1" as="geometry" />
        </mxCell>
        
        <mxCell id="edge8" edge="1" parent="1" source="testing-slot" target="testing-qa">
          <mxGeometry relative="1" as="geometry" />
        </mxCell>
        
        <mxCell id="edge9" edge="1" parent="1" source="testing-qa" target="approval">
          <mxGeometry relative="1" as="geometry" />
        </mxCell>
        
        <mxCell id="edge10" edge="1" parent="1" source="approval" target="fix-issues">
          <mxGeometry relative="1" as="geometry" />
        </mxCell>
        
        <mxCell id="edge11" edge="1" parent="1" source="approval" target="merge-main">
          <mxGeometry relative="1" as="geometry" />
        </mxCell>
        
        <mxCell id="edge12" edge="1" parent="1" source="fix-issues" target="feature-pr">
          <mxGeometry relative="1" as="geometry">
            <Array as="points">
              <mxPoint x="180" y="310" />
            </Array>
          </mxGeometry>
        </mxCell>
        
        <mxCell id="edge13" edge="1" parent="1" source="merge-main" target="release-pr">
          <mxGeometry relative="1" as="geometry">
            <Array as="points">
              <mxPoint x="540" y="580" />
              <mxPoint x="720" y="580" />
              <mxPoint x="720" y="340" />
            </Array>
          </mxGeometry>
        </mxCell>
        
        <!-- Labels -->
        <mxCell id="label1" value="Feature/Fix" style="text;html=1;align=center;verticalAlign=middle;resizable=0;points=[];autosize=1;strokeColor=none;fillColor=none;" vertex="1" parent="1">
          <mxGeometry x="370" y="200" width="80" height="30" as="geometry" />
        </mxCell>
        
        <mxCell id="label2" value="Release" style="text;html=1;align=center;verticalAlign=middle;resizable=0;points=[];autosize=1;strokeColor=none;fillColor=none;" vertex="1" parent="1">
          <mxGeometry x="590" y="200" width="60" height="30" as="geometry" />
        </mxCell>
        
        <mxCell id="label3" value="❌ No" style="text;html=1;align=center;verticalAlign=middle;resizable=0;points=[];autosize=1;strokeColor=none;fillColor=none;" vertex="1" parent="1">
          <mxGeometry x="250" y="780" width="50" height="30" as="geometry" />
        </mxCell>
        
        <mxCell id="label4" value="✅ Sí" style="text;html=1;align=center;verticalAlign=middle;resizable=0;points=[];autosize=1;strokeColor=none;fillColor=none;" vertex="1" parent="1">
          <mxGeometry x="420" y="780" width="50" height="30" as="geometry" />
        </mxCell>
        
      </root>
    </mxGraphModel>
  </diagram>
</mxfile>
